<?xml version="1.0" encoding="UTF-8" ?>
<!DOCTYPE svg PUBLIC "-//W3C//DTD SVG 1.1//EN" "http://www.w3.org/Graphics/SVG/1.1/DTD/svg11.dtd">
<svg width="225pt" height="225pt" viewBox="0 0 225 225" version="1.1" xmlns="http://www.w3.org/2000/svg">
<g id="#fefefeff">
</g>
<g id="#000000ff">
<path fill="#000000" opacity="1.00" d=" M 108.03 14.78 C 111.50 13.37 115.57 14.21 118.43 16.56 C 120.50 18.27 121.44 20.87 122.55 23.23 C 118.81 21.99 114.90 20.29 110.90 21.26 C 105.74 22.51 100.75 24.39 95.67 25.91 C 69.06 34.44 42.48 43.07 15.89 51.66 C 13.21 52.63 10.18 53.02 7.88 54.79 C 6.22 56.26 7.39 58.53 7.83 60.29 C 18.54 92.30 29.06 124.37 39.76 156.38 C 43.65 165.47 41.70 175.55 41.96 185.13 C 28.07 142.73 13.66 100.49 0.00 58.02 L 0.00 55.79 C 0.90 51.29 4.37 47.65 8.86 46.66 C 41.94 36.09 74.96 25.37 108.03 14.78 Z" />
<path fill="#000000" opacity="1.00" d=" M 105.60 31.52 C 108.28 28.60 112.70 27.43 116.47 28.71 C 128.78 32.52 140.98 36.70 153.33 40.40 C 145.71 40.11 138.09 40.43 130.47 40.23 C 124.54 38.96 118.97 36.27 113.03 35.03 C 110.24 35.19 109.70 38.23 108.86 40.30 C 106.42 40.28 103.99 40.28 101.55 40.30 C 102.74 37.32 103.39 33.97 105.60 31.52 Z" />
<path fill="#000000" opacity="1.00" d=" M 49.34 58.00 C 49.20 53.40 52.61 49.07 57.01 47.89 C 59.62 47.41 62.30 47.65 64.94 47.61 C 98.27 47.62 131.59 47.62 164.92 47.61 C 170.57 47.15 175.79 52.25 175.65 57.87 C 175.70 76.83 175.62 95.79 175.68 114.75 C 170.09 121.52 164.47 128.27 158.89 135.04 C 156.84 137.45 155.92 140.53 155.61 143.63 C 154.20 142.84 152.73 142.01 151.04 142.23 C 124.70 142.30 98.36 142.17 72.02 142.30 C 69.87 142.12 69.06 144.25 68.16 145.77 C 68.62 146.77 69.09 147.76 69.55 148.76 C 70.98 149.22 72.44 149.66 73.97 149.58 C 93.66 149.51 113.35 149.66 133.04 149.50 C 131.83 151.67 130.90 153.97 130.11 156.33 C 110.77 156.37 91.42 156.24 72.08 156.38 C 69.91 156.20 69.06 158.27 68.17 159.83 C 68.64 160.84 69.11 161.86 69.58 162.88 C 71.00 163.33 72.46 163.70 73.96 163.64 C 92.01 163.61 110.06 163.66 128.11 163.61 C 127.39 165.87 126.72 168.14 126.00 170.41 C 108.65 170.36 91.30 170.40 73.94 170.38 C 72.45 170.32 71.00 170.70 69.59 171.14 C 69.12 172.15 68.64 173.16 68.16 174.16 C 69.05 175.72 69.94 177.82 72.10 177.64 C 89.35 177.72 106.62 177.71 123.87 177.64 C 121.15 186.95 118.04 196.16 115.77 205.59 C 96.88 205.40 77.98 205.60 59.09 205.49 C 53.72 205.39 49.11 200.38 49.34 195.03 C 49.34 149.36 49.34 103.68 49.34 58.00 M 68.92 67.93 C 65.89 71.13 66.51 76.02 66.97 80.01 C 69.37 87.86 81.69 88.40 85.01 80.91 C 84.17 79.25 83.03 77.60 80.97 77.51 C 78.63 78.73 76.75 81.06 73.79 80.20 C 73.42 77.47 72.89 74.57 73.74 71.90 C 75.77 69.50 78.05 71.96 79.87 73.23 C 82.18 74.91 86.05 71.66 84.17 69.16 C 81.00 64.10 72.91 63.65 68.92 67.93 M 87.62 65.63 C 86.16 66.55 86.32 68.45 86.29 69.93 C 86.37 74.56 86.08 79.20 86.35 83.82 C 86.62 85.51 88.40 86.24 89.94 86.17 C 93.60 86.21 97.27 86.35 100.93 86.08 C 102.50 85.87 102.93 84.02 103.85 83.01 C 101.88 78.65 96.78 80.51 93.04 80.18 C 93.11 76.09 93.29 71.99 93.02 67.90 C 93.08 65.28 89.49 64.19 87.62 65.63 M 106.79 67.76 C 102.95 71.52 104.68 77.33 104.33 82.10 C 103.75 84.67 106.49 86.99 108.91 85.87 C 111.32 85.36 110.74 82.57 111.08 80.75 C 112.75 80.75 114.41 80.75 116.07 80.75 C 116.33 82.52 115.79 85.16 118.00 85.87 C 120.01 87.04 123.11 85.44 122.73 82.98 C 122.73 79.21 122.99 75.41 122.56 71.67 C 120.91 65.04 111.38 62.83 106.79 67.76 M 126.35 65.49 C 125.05 66.18 124.53 67.58 124.70 69.00 C 124.72 73.93 124.54 78.88 124.80 83.81 C 125.47 87.01 130.76 87.08 131.35 83.79 C 131.65 78.54 131.50 73.24 131.42 67.97 C 131.35 65.60 128.26 64.20 126.35 65.49 M 133.66 70.84 C 133.21 75.04 133.39 79.31 133.53 83.53 C 133.89 86.93 139.35 87.17 140.13 83.88 C 140.73 79.61 139.53 75.14 140.81 70.99 L 142.13 71.50 C 143.14 75.56 142.08 79.90 142.64 84.06 C 143.50 86.66 147.24 86.87 148.84 84.83 C 149.87 80.07 148.04 74.96 150.05 70.40 C 152.42 72.74 151.23 76.13 151.48 79.04 C 151.61 81.27 150.82 84.46 153.20 85.76 C 155.20 87.13 158.41 85.48 158.28 83.01 C 158.21 78.72 158.75 74.33 157.92 70.10 C 156.35 65.12 150.17 63.88 145.90 66.11 C 141.42 63.67 134.79 65.47 133.66 70.84 M 77.32 102.35 C 76.01 103.08 75.42 104.59 75.45 106.03 C 75.40 110.33 75.40 114.64 75.45 118.94 C 75.32 120.88 76.71 123.13 78.86 122.97 C 101.28 123.03 123.70 123.02 146.12 122.97 C 147.96 123.13 149.44 121.37 149.50 119.63 C 149.67 115.09 149.57 110.55 149.55 106.01 C 149.67 104.07 148.24 101.84 146.10 102.03 C 124.72 101.94 103.34 102.05 81.96 101.98 C 80.43 102.08 78.78 101.75 77.32 102.35 Z" />
<path fill="#000000" opacity="1.00" d=" M 180.66 49.29 C 192.94 53.42 205.35 57.15 217.65 61.22 C 221.41 62.36 223.95 65.70 225.00 69.38 L 225.00 70.24 C 221.71 68.58 217.92 68.69 214.49 67.49 C 204.05 64.14 193.63 60.68 183.15 57.42 C 182.56 54.64 181.76 51.91 180.66 49.29 Z" />
<path fill="#000000" opacity="1.00" d=" M 110.55 74.76 C 111.00 73.31 111.15 71.11 113.10 70.95 C 115.49 70.21 116.44 73.01 116.44 74.87 C 114.47 74.86 112.51 74.83 110.55 74.76 Z" />
<path fill="#000000" opacity="1.00" d=" M 216.60 76.56 C 218.80 73.60 223.85 76.62 222.40 79.95 C 220.85 82.51 218.74 84.66 216.86 86.99 C 201.05 106.18 185.15 125.31 169.36 144.53 C 174.40 149.71 179.40 154.93 184.36 160.20 C 195.83 150.42 207.03 140.30 218.61 130.65 C 221.56 128.11 225.85 133.13 223.00 135.71 C 211.89 145.73 200.46 155.42 189.20 165.28 C 187.18 167.29 184.29 167.18 181.67 166.91 C 178.17 173.34 177.51 180.76 177.33 187.95 C 177.45 190.26 175.48 191.99 173.41 192.54 C 158.43 197.24 143.41 201.78 128.46 206.56 C 127.02 206.93 125.56 207.70 124.04 207.37 C 122.50 206.72 123.20 205.04 123.54 203.91 C 128.39 188.02 132.94 172.03 137.80 156.15 C 138.31 153.85 140.60 152.36 142.89 152.59 C 149.95 152.67 157.00 151.38 163.44 148.45 C 162.99 146.18 162.17 143.69 163.27 141.47 C 164.59 139.12 166.46 137.15 168.16 135.08 C 184.31 115.58 200.41 96.03 216.60 76.56 M 144.01 159.36 C 140.60 170.69 137.27 182.05 133.86 193.39 C 139.74 187.76 145.37 181.87 151.18 176.17 C 153.45 174.51 152.94 170.97 155.50 169.59 C 158.61 167.36 163.74 170.02 163.36 173.95 C 163.75 177.22 160.61 179.15 157.75 179.42 C 152.60 184.56 147.45 189.71 142.35 194.91 C 151.79 192.05 161.18 189.02 170.63 186.17 C 170.54 177.77 172.08 169.10 176.58 161.88 C 173.84 159.08 171.13 156.25 168.42 153.42 C 161.09 157.78 152.44 159.33 144.01 159.36 Z" />
<path fill="#000000" opacity="1.00" d=" M 35.98 89.79 C 37.85 88.60 40.06 88.13 42.12 87.38 C 41.51 90.13 43.69 94.67 40.02 95.68 C 43.56 103.56 41.74 112.45 41.91 120.80 C 37.99 113.75 36.50 105.63 33.66 98.11 C 32.24 95.21 33.44 91.64 35.98 89.79 Z" />
<path fill="#000000" opacity="1.00" d=" M 208.11 115.24 C 210.28 113.90 212.67 116.02 213.13 118.14 C 212.92 120.47 210.82 121.82 209.37 123.39 C 202.16 130.20 195.14 137.25 187.79 143.89 C 184.67 145.86 181.00 141.11 183.63 138.61 C 191.67 130.71 199.74 122.77 208.11 115.24 Z" />
<path fill="#000000" opacity="1.00" d=" M 154.70 205.70 C 161.54 203.78 168.29 201.54 175.10 199.51 C 173.20 202.21 170.81 204.96 167.34 205.45 C 163.15 205.92 158.91 205.64 154.70 205.70 Z" />
</g>
</svg>
