<?xml version="1.0" encoding="UTF-8" ?>
<!DOCTYPE svg PUBLIC "-//W3C//DTD SVG 1.1//EN" "http://www.w3.org/Graphics/SVG/1.1/DTD/svg11.dtd">
<svg width="256pt" height="256pt" viewBox="0 0 256 256" version="1.1" xmlns="http://www.w3.org/2000/svg">
<g id="#010101fe">
<path fill="#010101" opacity="1.00" d=" M 122.75 16.78 C 126.41 15.52 130.66 15.68 133.86 18.03 C 136.81 19.89 138.18 23.22 139.48 26.30 C 134.63 24.85 129.49 22.89 124.43 24.64 C 89.17 35.75 54.06 47.32 18.85 58.60 C 15.61 59.75 12.11 60.37 9.17 62.21 C 7.52 63.72 8.23 66.14 8.78 67.98 C 21.70 106.58 34.39 145.26 47.30 183.86 C 48.37 187.11 48.08 190.57 48.02 193.93 C 47.79 199.50 48.16 205.08 47.97 210.65 C 45.26 204.18 43.45 197.38 41.10 190.78 C 27.43 149.39 13.56 108.07 0.00 66.64 L 0.00 63.26 C 0.74 60.58 1.85 57.84 4.04 56.01 C 7.00 53.54 10.91 52.84 14.46 51.62 C 50.56 40.02 86.65 28.38 122.75 16.78 Z" />
<path fill="#010101" opacity="1.00" d=" M 123.29 33.37 C 128.10 30.68 133.60 32.78 138.37 34.40 C 150.00 38.24 161.74 41.74 173.31 45.75 C 166.90 46.15 160.47 46.06 154.06 46.13 C 145.22 46.65 137.47 41.58 128.98 40.11 C 125.66 39.84 124.81 43.48 123.95 45.92 C 121.13 45.97 118.31 46.02 115.49 46.05 C 117.04 41.35 118.36 35.67 123.29 33.37 Z" />
<path fill="#010101" opacity="1.00" d=" M 59.49 57.47 C 62.16 54.59 66.24 53.86 70.01 54.03 C 109.00 53.92 147.98 53.91 186.97 54.05 C 192.18 53.62 197.57 56.79 199.26 61.82 C 200.26 65.08 200.03 68.56 200.02 71.93 C 199.96 91.29 200.09 110.65 199.95 130.01 C 197.38 133.38 194.95 136.87 192.04 139.96 C 191.82 118.34 192.08 96.72 191.94 75.10 C 191.92 71.34 192.49 67.41 191.32 63.77 C 188.88 60.74 184.31 62.32 180.95 62.01 C 143.65 62.04 106.35 62.08 69.05 62.01 C 66.12 61.53 63.57 64.03 63.98 66.97 C 64.04 102.68 64.14 138.40 63.96 174.10 C 64.21 179.14 55.87 179.10 55.97 174.11 C 55.93 138.73 55.98 103.33 55.97 67.95 C 55.90 64.20 56.60 60.13 59.49 57.47 Z" />
<path fill="#010101" opacity="1.00" d=" M 205.48 56.09 C 218.32 60.13 231.12 64.28 243.95 68.31 C 249.77 69.50 255.59 73.43 255.99 79.89 C 252.76 78.14 249.04 78.42 245.61 77.42 C 233.11 73.22 220.51 69.31 207.97 65.24 C 207.78 62.05 206.80 58.99 205.48 56.09 Z" />
<path fill="#010101" opacity="1.00" d=" M 76.44 80.94 C 78.70 72.93 91.08 71.66 95.49 78.40 C 97.21 80.40 95.33 83.54 92.90 83.64 C 90.06 84.10 88.65 80.46 85.92 80.54 C 82.46 81.39 83.40 85.47 83.41 88.10 C 83.22 89.77 84.30 91.26 86.00 91.50 C 88.19 91.76 89.43 89.60 90.89 88.39 C 93.24 88.30 96.20 89.14 96.29 92.00 C 94.03 98.65 84.50 99.85 79.43 95.72 C 74.85 92.36 75.72 85.84 76.44 80.94 Z" />
<path fill="#010101" opacity="1.00" d=" M 98.41 77.08 C 98.41 73.15 105.70 73.00 105.71 77.00 C 105.96 81.75 105.70 86.52 105.79 91.28 C 109.04 91.36 112.38 90.92 115.57 91.66 C 118.32 92.79 117.96 97.13 115.07 97.78 C 111.74 98.27 108.36 98.00 105.01 98.11 C 103.01 98.04 100.58 98.45 99.08 96.80 C 98.08 95.84 98.48 94.28 98.31 93.06 C 98.38 87.73 98.16 82.40 98.41 77.08 Z" />
<path fill="#010101" opacity="1.00" d=" M 119.10 81.07 C 121.15 73.58 131.81 71.69 136.97 77.06 C 141.31 81.23 139.08 87.78 139.60 93.08 C 140.32 96.11 137.33 99.11 134.33 97.63 C 131.72 96.82 132.52 93.81 132.24 91.75 C 130.24 91.79 128.23 91.79 126.23 91.84 C 126.25 93.32 126.28 94.79 126.31 96.27 C 124.25 98.00 120.59 98.87 119.12 95.97 C 118.62 91.04 118.46 85.98 119.10 81.07 M 126.06 85.28 C 128.23 85.31 130.41 85.32 132.59 85.32 C 132.51 83.20 131.71 80.24 128.98 80.61 C 126.47 80.70 126.10 83.32 126.06 85.28 Z" />
<path fill="#010101" opacity="1.00" d=" M 144.24 74.36 C 146.66 73.31 149.86 75.26 149.47 78.02 C 149.45 83.68 149.64 89.35 149.38 95.00 C 149.22 98.95 142.29 99.02 142.12 95.04 C 141.73 89.35 141.74 83.61 142.05 77.91 C 141.96 76.40 142.73 74.84 144.24 74.36 Z" />
<path fill="#010101" opacity="1.00" d=" M 152.43 79.39 C 154.50 74.14 161.27 72.94 165.94 75.36 C 170.61 72.97 177.30 74.07 179.43 79.31 C 180.48 84.47 180.04 89.83 180.02 95.06 C 179.59 98.75 173.60 99.16 172.68 95.60 C 172.23 90.64 172.75 85.65 172.23 80.69 C 171.64 81.03 170.47 81.72 169.88 82.06 C 169.35 86.59 170.09 91.18 169.50 95.70 C 168.64 98.82 163.24 98.74 162.43 95.62 C 161.95 91.09 162.65 86.51 162.18 81.98 C 161.58 81.65 160.37 80.98 159.77 80.64 C 159.09 85.77 159.90 90.98 159.22 96.10 C 158.25 97.07 157.09 97.82 155.99 98.62 C 154.17 97.62 151.59 96.59 151.88 94.04 C 152.00 89.16 151.74 84.22 152.43 79.39 Z" />
<path fill="#010101" opacity="1.00" d=" M 244.72 89.01 C 245.74 87.89 246.64 86.55 248.05 85.90 C 250.92 84.67 254.45 88.10 253.10 90.99 C 252.42 92.29 251.46 93.41 250.54 94.54 C 235.83 112.12 221.45 129.98 206.63 147.47 C 208.90 149.44 210.91 151.70 213.23 153.61 C 219.37 147.27 225.87 141.29 232.16 135.10 C 233.72 133.62 235.19 131.98 237.08 130.90 C 240.29 129.33 243.99 133.97 241.74 136.75 C 239.04 140.06 235.64 142.72 232.67 145.78 C 227.56 150.34 223.06 155.58 217.63 159.76 C 221.75 160.86 223.72 165.22 227.14 167.49 C 233.82 161.00 241.05 155.09 248.09 149.00 C 250.22 146.74 254.13 148.17 254.69 151.10 C 255.36 153.58 253.05 155.17 251.50 156.64 C 239.55 167.00 227.63 177.39 215.73 187.80 C 213.33 190.14 209.88 190.29 206.73 190.15 C 205.12 193.34 203.90 196.70 203.00 200.16 C 205.69 202.03 207.80 204.58 210.23 206.76 C 210.58 203.87 211.16 201.02 211.87 198.21 C 214.06 197.72 216.24 197.18 218.40 196.54 C 215.14 206.03 212.09 215.58 208.90 225.08 C 207.46 229.04 206.85 233.62 203.65 236.65 C 202.08 238.29 199.96 239.16 197.93 240.07 C 200.88 237.25 204.29 234.70 205.96 230.85 C 208.18 226.86 207.49 222.11 209.03 217.92 C 210.15 215.00 209.95 211.84 209.97 208.78 C 207.13 206.74 204.59 204.25 202.53 201.42 C 202.25 205.94 202.20 210.49 201.70 214.99 C 201.24 217.72 198.41 218.91 196.06 219.61 C 178.33 224.96 160.70 230.65 142.96 235.98 C 141.75 236.71 139.49 235.39 140.15 233.93 C 140.39 232.27 140.84 230.66 141.32 229.07 C 146.60 212.07 151.40 194.93 156.60 177.91 C 157.22 175.00 160.08 173.14 162.98 173.47 C 170.83 173.64 178.69 172.14 185.84 168.87 C 185.05 165.58 184.47 161.74 186.91 158.98 C 206.06 135.55 225.52 112.39 244.72 89.01 M 204.62 149.55 C 201.19 154.93 196.47 159.32 192.89 164.59 C 198.73 170.16 203.82 176.69 209.96 181.82 C 215.37 177.70 220.23 172.89 225.53 168.61 C 222.48 166.12 219.99 163.04 216.93 160.55 C 215.61 162.09 214.28 164.04 212.08 164.31 C 209.88 164.29 207.46 162.32 207.83 159.98 C 208.05 157.78 210.14 156.58 211.55 155.17 C 209.55 152.98 207.75 150.12 204.62 149.55 M 163.99 181.36 C 160.04 194.05 156.35 206.82 152.63 219.59 C 159.29 213.25 165.67 206.63 172.18 200.14 C 174.54 198.02 174.11 193.86 177.34 192.56 C 181.83 190.10 187.54 195.10 185.71 199.88 C 184.75 203.67 180.12 203.39 177.85 205.89 C 172.61 211.12 167.43 216.41 162.21 221.66 C 172.77 218.40 183.26 214.93 193.88 211.86 C 194.09 202.27 195.66 192.45 200.78 184.16 C 197.69 180.99 194.70 177.70 191.43 174.70 C 183.23 179.71 173.47 181.36 163.99 181.36 Z" />
<path fill="#010101" opacity="1.00" d=" M 38.98 104.00 C 41.01 100.96 44.84 100.32 48.09 99.38 C 48.14 102.16 48.09 104.96 47.94 107.74 C 47.34 107.98 46.15 108.46 45.55 108.70 C 46.78 112.01 48.14 115.37 48.04 118.97 C 48.07 125.07 48.35 131.20 47.78 137.29 C 45.14 134.02 44.27 129.83 42.90 125.96 C 41.36 120.96 39.59 116.03 38.04 111.03 C 37.25 108.69 37.41 105.98 38.98 104.00 Z" />
<path fill="#010101" opacity="1.00" d=" M 83.35 110.42 C 88.19 109.47 93.15 110.04 98.03 110.03 C 122.01 109.88 146.00 110.01 169.97 109.98 C 173.56 109.89 176.88 112.51 177.71 115.97 C 178.42 119.25 178.02 122.63 177.98 125.95 C 177.83 132.17 178.62 138.47 177.54 144.64 C 176.38 148.67 171.92 150.35 168.06 150.03 C 141.03 150.00 114.01 150.13 86.98 149.98 C 82.41 150.52 77.85 146.79 78.08 142.08 C 77.87 134.07 77.81 126.04 78.03 118.04 C 77.96 114.69 80.22 111.51 83.35 110.42 M 85.97 118.06 C 85.97 125.99 85.87 133.93 86.13 141.86 C 114.04 142.24 141.94 141.84 169.85 142.05 C 170.01 134.07 170.05 126.10 170.05 118.12 C 142.03 117.94 114.00 118.04 85.97 118.06 Z" />
<path fill="#010101" opacity="1.00" d=" M 81.03 169.79 C 77.11 169.31 77.07 162.65 80.96 162.20 C 95.27 161.52 109.62 162.25 123.94 161.91 C 138.95 162.09 153.96 161.87 168.97 161.98 C 171.72 162.15 174.91 161.51 176.98 163.80 C 172.07 164.98 167.03 165.57 161.97 165.45 C 158.05 165.29 154.59 167.38 151.78 169.91 C 142.51 170.39 133.24 169.77 123.97 169.96 C 115.65 170.24 107.33 169.91 99.01 169.99 C 93.02 169.69 86.99 170.62 81.03 169.79 Z" />
<path fill="#010101" opacity="1.00" d=" M 78.31 180.51 C 78.85 178.43 81.18 178.07 83.00 178.15 C 104.69 178.12 126.39 178.16 148.09 178.13 C 147.37 180.77 146.61 183.40 145.87 186.03 C 124.92 186.31 103.96 186.13 83.01 186.12 C 79.88 186.67 76.99 183.54 78.31 180.51 Z" />
<path fill="#010101" opacity="1.00" d=" M 78.02 197.99 C 77.99 195.43 80.57 193.79 82.94 194.15 C 103.09 194.13 123.25 194.20 143.40 194.12 C 142.69 196.82 141.91 199.50 141.13 202.18 C 121.76 202.18 102.40 202.14 83.03 202.21 C 80.55 202.57 77.82 200.65 78.02 197.99 Z" />
<path fill="#010101" opacity="1.00" d=" M 56.21 203.14 C 56.46 199.78 61.65 199.04 63.31 201.72 C 64.17 202.97 64.05 204.55 64.07 205.99 C 63.92 211.66 63.84 217.36 64.25 223.03 C 64.36 225.36 67.03 226.33 69.04 226.16 C 90.60 226.11 112.17 226.25 133.74 226.08 C 133.06 228.76 132.38 231.44 131.79 234.14 C 110.84 234.26 89.89 234.13 68.93 234.21 C 63.96 234.51 58.94 231.53 56.97 226.94 C 55.47 223.51 55.99 219.68 55.97 216.06 C 56.17 211.75 55.84 207.43 56.21 203.14 Z" />
<path fill="#010101" opacity="1.00" d=" M 176.72 234.00 C 184.15 231.52 191.63 229.13 199.19 227.06 C 197.32 230.04 194.79 233.01 191.16 233.72 C 186.40 234.49 181.52 234.28 176.72 234.00 Z" />
</g>
</svg>
