<?xml version="1.0" encoding="UTF-8" ?>
<!DOCTYPE svg PUBLIC "-//W3C//DTD SVG 1.1//EN" "http://www.w3.org/Graphics/SVG/1.1/DTD/svg11.dtd">
<svg width="500pt" height="500pt" viewBox="0 0 500 500" version="1.1" xmlns="http://www.w3.org/2000/svg">
<g id="#ffffffff">
</g>
<g id="#000000ff">
<path fill="#000000" opacity="1.00" d=" M 163.05 143.94 C 162.61 141.08 166.34 142.04 168.04 141.84 C 169.92 141.97 173.42 141.19 173.42 144.09 C 171.97 146.53 169.61 148.23 167.69 150.26 C 169.63 150.71 173.02 149.16 173.56 152.03 C 173.34 152.42 172.89 153.19 172.66 153.57 C 169.83 153.88 166.97 153.81 164.14 153.66 C 162.60 153.70 162.17 151.22 163.40 150.43 C 164.94 148.69 166.68 147.14 168.33 145.49 C 166.73 145.01 163.17 146.47 163.05 143.94 Z" />
<path fill="#000000" opacity="1.00" d=" M 179.40 158.47 C 181.66 157.10 184.80 158.15 187.40 157.84 C 188.59 161.03 184.88 162.66 183.17 164.70 C 183.89 164.71 185.33 164.74 186.04 164.76 C 187.78 164.08 188.66 167.24 186.95 167.55 C 184.46 167.74 181.92 167.80 179.45 167.41 C 178.19 164.41 182.24 162.81 183.74 160.79 C 182.08 160.66 178.25 161.41 179.40 158.47 Z" />
<path fill="#000000" opacity="1.00" d=" M 199.52 170.75 C 213.50 165.22 230.47 175.98 231.61 190.91 C 233.56 204.51 221.76 218.06 207.96 217.70 C 195.36 218.41 183.82 207.48 183.39 194.97 C 182.61 184.48 189.56 174.09 199.52 170.75 Z" />
<path fill="#000000" opacity="1.00" d=" M 237.88 183.98 C 242.02 177.61 249.48 173.62 257.07 173.61 C 274.22 173.28 290.71 180.61 303.91 191.19 C 318.12 202.69 329.49 218.00 335.38 235.38 C 337.85 242.77 339.33 251.38 335.53 258.60 C 334.61 260.22 333.82 262.38 331.76 262.77 C 330.18 267.59 324.50 269.50 320.11 271.04 C 308.21 273.52 295.89 272.69 283.89 274.50 C 307.59 274.30 331.31 274.39 355.01 274.41 C 356.07 274.14 358.26 275.04 358.36 273.29 C 359.82 268.37 360.90 263.33 362.61 258.48 C 360.38 257.54 357.53 257.24 356.14 254.98 C 354.70 252.98 355.48 250.42 355.80 248.21 C 357.29 249.91 358.04 252.13 359.66 253.73 C 359.67 254.56 359.70 256.22 359.72 257.05 C 361.71 253.54 359.91 249.44 357.53 246.57 L 357.73 250.74 C 355.65 249.18 356.58 246.82 356.98 244.85 C 362.04 227.29 367.09 209.74 372.06 192.16 C 372.53 190.65 372.86 189.04 373.76 187.71 C 377.43 182.65 387.74 186.67 385.93 193.10 C 381.20 210.08 376.19 226.99 371.46 243.97 C 371.19 244.77 371.01 245.65 370.48 246.32 C 368.34 247.88 366.14 249.66 365.46 252.34 C 363.97 255.85 365.21 259.57 365.87 263.11 C 365.14 267.27 363.70 271.28 362.58 275.34 C 367.42 279.71 366.58 290.24 359.13 291.05 C 347.22 291.29 335.29 291.10 323.37 291.14 C 323.39 304.60 323.36 318.06 323.39 331.52 C 330.82 331.53 338.25 331.42 345.69 331.56 C 356.57 332.00 365.44 343.70 362.27 354.27 C 360.13 359.43 351.95 359.15 350.16 353.86 C 348.10 349.28 352.35 344.93 356.75 344.42 C 354.14 340.32 350.01 336.79 344.91 336.73 C 328.26 336.66 311.61 336.72 294.97 336.71 C 289.65 336.58 284.94 340.04 282.52 344.61 C 287.08 344.77 291.03 349.45 289.04 353.94 C 287.21 359.28 278.55 359.32 276.81 353.89 C 274.00 343.56 282.53 332.34 293.07 331.60 C 300.65 331.36 308.24 331.57 315.82 331.50 C 315.78 318.05 315.82 304.59 315.81 291.13 C 303.87 291.10 291.92 291.30 279.99 291.04 C 271.95 290.11 271.45 277.45 278.45 274.51 C 277.70 274.59 276.20 274.75 275.45 274.83 C 276.79 271.31 277.85 267.70 278.73 264.04 C 280.01 265.09 280.95 267.13 282.97 266.51 C 285.09 267.93 287.75 267.18 290.12 267.17 C 290.83 266.80 292.25 266.05 292.96 265.68 C 289.98 266.37 287.00 267.04 283.89 266.65 C 282.48 265.11 280.99 263.65 279.30 262.44 C 279.52 260.40 279.75 258.37 280.00 256.34 C 284.46 256.21 288.92 256.22 293.38 256.32 C 293.42 253.46 294.11 249.84 291.23 248.03 C 289.08 247.24 289.76 244.76 288.76 243.16 C 286.55 239.05 283.56 235.44 280.41 232.02 C 278.75 218.53 274.63 205.20 267.34 193.66 C 265.13 189.88 262.11 185.97 257.49 185.27 C 251.32 183.88 244.62 188.04 243.24 194.22 C 242.15 197.78 243.29 201.61 245.37 204.59 C 248.53 209.19 250.98 214.26 252.78 219.54 C 246.96 218.13 241.56 214.83 238.14 209.85 C 232.84 202.35 232.73 191.59 237.88 183.98 M 312.55 238.46 C 309.00 240.30 307.87 245.48 310.29 248.65 C 313.26 252.78 319.05 252.93 322.45 256.52 C 324.91 259.16 323.81 264.14 320.31 265.27 C 316.38 266.91 312.19 265.32 308.45 263.93 C 308.83 265.36 309.10 267.11 310.98 267.11 C 314.70 268.22 319.03 268.47 322.47 266.40 C 326.10 264.29 327.17 258.84 324.53 255.56 C 321.59 251.75 316.33 251.27 312.81 248.23 C 310.29 246.01 310.92 241.50 313.86 239.93 C 317.28 238.17 321.30 239.21 324.69 240.52 C 324.70 239.75 324.71 238.98 324.73 238.22 C 320.82 237.01 316.27 236.30 312.55 238.46 Z" />
<path fill="#000000" opacity="1.00" d=" M 244.84 195.94 C 245.45 189.90 252.11 185.39 257.92 187.34 C 261.57 188.21 263.78 191.50 265.62 194.50 C 276.66 212.22 280.89 233.88 278.33 254.52 L 277.58 254.42 C 278.02 263.18 274.96 271.67 271.36 279.51 C 269.71 283.57 265.34 286.30 260.95 285.79 C 255.24 285.54 250.63 279.69 251.64 274.07 C 252.46 270.34 254.74 267.14 255.57 263.42 L 256.38 263.66 C 256.38 262.08 256.55 260.54 257.29 259.14 C 259.96 241.92 258.44 223.52 249.82 208.10 C 247.71 204.28 244.06 200.69 244.84 195.94 Z" />
<path fill="#000000" opacity="1.00" d=" M 113.81 218.62 C 156.59 218.58 199.37 218.66 242.16 218.63 C 242.17 220.60 242.19 222.57 242.24 224.55 C 216.74 224.75 191.25 224.54 165.75 224.65 C 165.27 224.62 164.30 224.56 163.81 224.53 C 156.25 224.32 148.68 224.33 141.12 224.52 L 140.16 224.59 C 135.80 224.72 131.44 224.58 127.08 224.63 C 127.12 232.41 126.65 240.19 127.05 247.96 C 127.07 251.20 127.43 254.52 126.73 257.72 C 125.45 260.74 124.03 263.72 122.83 266.78 C 124.25 266.91 125.67 267.03 127.09 267.16 C 126.68 297.48 127.04 327.81 126.89 358.13 C 122.53 358.10 118.18 358.12 113.83 358.11 C 113.78 323.08 113.91 288.05 113.74 253.03 C 113.81 251.48 113.65 249.86 114.14 248.37 C 117.93 240.02 121.27 231.47 124.80 223.01 C 121.14 222.96 117.47 222.95 113.80 223.06 C 113.80 221.58 113.80 220.10 113.81 218.62 Z" />
<path fill="#000000" opacity="1.00" d=" M 281.34 246.28 C 284.67 246.63 288.68 245.32 291.00 248.48 C 291.55 250.95 292.95 253.13 292.93 255.73 C 288.68 255.59 284.44 255.66 280.19 255.64 C 280.43 252.50 281.10 249.42 281.34 246.28 Z" />
<path fill="#000000" opacity="1.00" d=" M 247.96 248.75 C 250.78 248.43 253.60 248.15 256.44 248.11 C 255.77 253.81 255.21 259.58 253.11 264.97 C 251.82 268.93 248.98 272.64 249.70 277.03 C 250.21 282.05 254.10 286.01 258.75 287.59 C 254.79 304.99 250.97 322.43 246.85 339.79 C 244.86 347.63 235.49 352.08 228.09 348.98 C 221.67 346.51 217.86 339.09 219.62 332.42 C 224.77 309.90 228.94 287.14 234.81 264.79 C 236.84 267.75 240.36 267.50 243.51 267.27 C 245.00 265.80 246.50 264.34 248.13 263.02 C 249.60 259.81 249.53 256.26 249.22 252.82 C 248.49 251.56 248.24 250.15 247.96 248.75 Z" />
<path fill="#000000" opacity="1.00" d=" M 235.04 264.23 C 235.66 257.28 240.02 249.79 247.60 249.09 C 248.67 253.61 249.64 258.68 247.46 263.03 C 246.03 264.14 244.73 265.40 243.47 266.68 C 241.50 266.65 239.54 266.65 237.57 266.69 C 236.73 265.87 235.88 265.04 235.04 264.23 Z" />
</g>
<g id="#f7f7f7ff">
</g>
<g id="#585858ff">
<path fill="#585858" opacity="1.00" d=" M 113.80 223.06 C 117.47 222.95 121.14 222.96 124.80 223.01 C 121.27 231.47 117.93 240.02 114.14 248.37 C 113.42 239.96 114.05 231.49 113.80 223.06 Z" />
<path fill="#585858" opacity="1.00" d=" M 312.55 238.46 C 316.27 236.30 320.82 237.01 324.73 238.22 C 324.71 238.98 324.70 239.75 324.69 240.52 C 321.30 239.21 317.28 238.17 313.86 239.93 C 310.92 241.50 310.29 246.01 312.81 248.23 C 316.33 251.27 321.59 251.75 324.53 255.56 C 327.17 258.84 326.10 264.29 322.47 266.40 C 319.03 268.47 314.70 268.22 310.98 267.11 C 309.10 267.11 308.83 265.36 308.45 263.93 C 312.19 265.32 316.38 266.91 320.31 265.27 C 323.81 264.14 324.91 259.16 322.45 256.52 C 319.05 252.93 313.26 252.78 310.29 248.65 C 307.87 245.48 309.00 240.30 312.55 238.46 Z" />
<path fill="#585858" opacity="1.00" d=" M 365.46 252.34 C 366.14 249.66 368.34 247.88 370.48 246.32 C 369.71 252.09 367.82 257.65 365.87 263.11 C 365.21 259.57 363.97 255.85 365.46 252.34 Z" />
<path fill="#585858" opacity="1.00" d=" M 122.83 266.78 C 124.03 263.72 125.45 260.74 126.73 257.72 C 126.90 260.86 126.89 264.02 127.09 267.16 C 125.67 267.03 124.25 266.91 122.83 266.78 Z" />
</g>
</svg>
