<?xml version="1.0" encoding="UTF-8" ?>
<!DOCTYPE svg PUBLIC "-//W3C//DTD SVG 1.1//EN" "http://www.w3.org/Graphics/SVG/1.1/DTD/svg11.dtd">
<svg width="311pt" height="104pt" viewBox="0 0 311 104" version="1.1" xmlns="http://www.w3.org/2000/svg">
<g id="#fffffeff">
<path fill="#fffffe" opacity="1.00" d=" M 124.34 82.54 C 125.52 83.11 128.07 82.72 127.75 84.65 C 127.11 85.98 125.51 85.86 124.32 86.26 C 124.32 85.33 124.34 83.47 124.34 82.54 Z" />
<path fill="#fffffe" opacity="1.00" d=" M 255.99 90.27 C 256.53 88.55 257.07 86.82 257.60 85.09 C 258.18 86.80 258.77 88.50 259.37 90.21 C 258.24 90.23 257.12 90.25 255.99 90.27 Z" />
</g>
<g id="#29207cff">
<path fill="#29207c" opacity="1.00" d=" M 188.11 17.31 C 189.41 17.83 190.70 18.33 192.01 18.84 C 191.56 20.68 191.02 22.52 190.06 24.17 C 183.94 35.49 177.91 46.85 171.76 58.15 C 166.62 58.09 161.33 55.91 156.30 57.26 C 153.47 60.50 151.06 64.10 148.30 67.41 C 131.19 67.27 114.08 67.28 96.96 67.36 C 94.53 67.67 92.97 65.77 92.23 63.71 C 95.71 61.27 100.24 63.76 103.59 61.56 C 112.51 47.18 120.89 32.47 130.00 18.19 C 132.17 18.13 133.14 19.85 133.52 21.78 C 127.89 30.55 123.13 39.89 117.89 48.91 C 115.95 52.94 112.56 56.47 112.50 61.18 C 117.85 63.59 123.98 62.85 129.49 61.44 C 131.67 58.77 132.81 55.46 134.12 52.32 C 132.60 51.34 131.09 50.35 129.60 49.32 C 131.56 41.17 135.49 33.06 142.84 28.51 C 144.49 28.64 146.14 28.86 147.80 28.76 C 149.88 25.27 151.65 21.59 153.91 18.20 C 154.79 18.21 156.55 18.24 157.43 18.25 C 157.42 18.96 157.39 20.40 157.38 21.11 C 155.48 24.72 154.59 28.85 152.19 32.19 C 149.72 34.41 146.06 34.01 142.98 34.28 C 139.83 38.93 137.04 43.85 135.28 49.21 C 137.17 49.81 139.07 50.34 140.97 50.91 C 139.73 54.50 138.09 57.95 137.04 61.60 C 139.15 61.90 141.27 62.14 143.38 62.47 C 147.14 59.62 147.07 53.86 151.03 51.18 C 156.70 50.37 162.47 51.54 168.19 51.15 C 171.13 45.22 174.76 39.69 178.01 33.94 C 181.63 28.55 184.10 22.45 188.11 17.31 Z" />
<path fill="#29207c" opacity="1.00" d=" M 66.81 17.94 C 74.21 17.84 81.61 18.22 89.02 17.94 C 97.15 18.63 105.31 18.48 113.46 18.79 C 113.43 19.70 113.37 21.52 113.34 22.44 C 105.16 21.93 96.79 23.05 88.73 21.85 C 87.00 20.81 84.94 20.66 83.11 21.55 C 81.82 21.91 80.53 22.28 79.25 22.67 C 79.02 25.70 82.53 26.77 84.90 27.24 C 91.60 27.37 98.31 27.56 105.02 27.48 C 106.43 27.27 107.68 27.95 108.86 28.61 C 108.44 29.35 107.60 30.81 107.18 31.54 C 101.12 31.08 95.04 31.41 88.97 31.33 C 89.05 33.05 89.55 35.02 91.42 35.59 C 95.55 36.35 99.79 36.12 103.97 35.88 C 103.82 37.13 103.67 38.38 103.51 39.63 C 98.53 39.78 92.51 41.28 88.45 37.54 C 85.80 35.21 84.29 31.76 81.15 29.94 C 77.92 28.12 76.17 24.82 73.91 22.05 C 71.60 20.60 69.00 19.62 66.81 17.94 Z" />
<path fill="#29207c" opacity="1.00" d=" M 245.86 21.14 C 247.63 19.82 249.51 18.46 251.83 18.42 C 250.30 21.69 247.20 23.60 244.04 25.04 C 241.16 26.09 240.64 29.50 238.55 31.40 C 236.79 32.50 234.71 32.92 232.95 33.96 C 230.95 36.29 229.88 39.64 226.91 40.96 C 222.01 42.79 215.73 39.36 211.64 43.48 C 212.51 49.30 213.05 55.17 213.77 61.01 C 213.90 63.04 213.58 66.53 210.89 66.55 C 205.93 66.84 199.90 67.37 196.34 63.14 C 197.24 62.48 198.14 61.83 199.05 61.18 C 201.55 61.40 204.07 61.46 206.59 61.47 C 206.75 60.85 207.07 59.60 207.23 58.97 C 207.61 45.75 204.09 32.72 204.68 19.49 C 206.10 19.30 207.52 19.12 208.95 18.95 C 209.55 19.59 210.16 20.23 210.77 20.87 C 222.46 21.35 234.16 21.07 245.86 21.14 M 210.55 25.54 C 210.38 26.86 210.40 28.20 210.36 29.53 C 218.02 31.77 226.13 30.51 233.92 29.83 C 235.46 29.17 239.03 25.90 236.25 25.00 C 229.85 24.63 223.43 24.93 217.03 24.77 C 214.87 24.91 212.52 24.47 210.55 25.54 M 211.57 33.40 C 211.56 35.07 210.73 36.99 211.96 38.44 C 215.96 39.18 220.04 39.12 224.08 38.83 C 225.80 37.42 227.76 35.99 227.81 33.54 C 222.41 33.15 216.98 33.15 211.57 33.40 Z" />
<path fill="#29207c" opacity="1.00" d=" M 164.40 29.29 C 165.76 27.97 167.68 28.47 169.33 28.69 C 169.54 33.24 166.03 36.49 163.71 39.99 C 162.62 41.65 160.48 40.36 158.98 40.16 C 159.38 36.02 160.80 31.73 164.40 29.29 Z" />
<path fill="#29207c" opacity="1.00" d=" M 186.53 53.80 C 189.60 52.49 192.97 53.63 196.16 53.74 C 195.74 55.19 195.34 56.66 194.93 58.12 C 193.43 58.44 191.62 58.24 190.47 59.46 C 188.00 62.07 185.60 64.76 183.28 67.51 C 179.22 67.64 175.14 67.80 171.08 67.54 C 169.66 67.52 168.13 65.52 169.36 64.32 C 171.53 60.88 176.07 62.30 179.44 61.80 C 181.68 59.04 183.64 55.95 186.53 53.80 Z" />
</g>
<g id="#0f1e47ff">
<path fill="#0f1e47" opacity="1.00" d=" M 83.11 21.55 C 84.94 20.66 87.00 20.81 88.73 21.85 C 87.18 22.85 84.49 22.85 83.11 21.55 Z" />
<path fill="#0f1e47" opacity="1.00" d=" M 192.41 43.22 C 191.64 41.18 192.78 37.23 195.52 38.33 C 195.76 40.56 193.98 42.00 192.41 43.22 Z" />
<path fill="#0f1e47" opacity="1.00" d=" M 13.29 79.68 C 14.13 79.73 14.97 79.79 15.82 79.85 C 15.95 83.07 15.38 86.40 16.34 89.53 C 17.65 90.61 20.18 90.47 20.55 88.54 C 20.98 85.54 20.68 82.48 20.79 79.46 C 21.39 79.62 22.60 79.93 23.20 80.08 C 23.40 83.05 23.48 86.07 23.08 89.03 C 22.14 93.49 14.09 93.47 13.38 88.89 C 13.06 85.83 13.27 82.75 13.29 79.68 Z" />
<path fill="#0f1e47" opacity="1.00" d=" M 26.05 79.64 C 31.12 78.83 31.71 85.10 33.98 88.20 C 33.97 85.40 33.97 82.59 33.99 79.78 C 34.57 79.78 35.72 79.76 36.30 79.76 C 36.32 83.86 36.36 87.97 36.19 92.07 C 35.43 92.03 33.92 91.95 33.16 91.90 C 31.48 88.79 29.82 85.67 28.25 82.50 C 28.31 85.67 28.34 88.84 28.28 92.01 C 27.71 92.01 26.58 92.01 26.01 92.01 C 25.96 87.88 25.93 83.76 26.05 79.64 Z" />
<path fill="#0f1e47" opacity="1.00" d=" M 38.98 79.52 C 39.60 79.66 40.84 79.93 41.46 80.06 C 41.73 84.05 41.52 88.04 41.52 92.04 C 40.89 92.03 39.63 92.02 39.00 92.01 C 38.96 87.85 38.96 83.68 38.98 79.52 Z" />
<path fill="#0f1e47" opacity="1.00" d=" M 42.68 79.78 C 45.79 79.78 48.91 79.61 52.01 79.86 C 53.74 82.04 50.04 81.86 48.83 81.99 C 48.81 85.31 48.83 88.64 48.79 91.96 C 48.16 91.98 46.88 92.02 46.24 92.03 C 46.24 88.64 46.24 85.24 46.23 81.84 C 45.11 81.83 43.99 81.82 42.88 81.82 L 42.68 79.78 Z" />
<path fill="#0f1e47" opacity="1.00" d=" M 52.56 79.55 C 56.02 78.90 56.49 82.61 57.57 84.91 C 58.60 82.55 59.00 78.82 62.52 79.58 C 60.69 83.54 58.17 87.43 58.67 92.02 C 58.09 92.02 56.92 92.01 56.34 92.00 C 56.98 87.39 54.19 83.60 52.56 79.55 Z" />
<path fill="#0f1e47" opacity="1.00" d=" M 72.27 80.74 C 72.90 80.75 74.17 80.78 74.80 80.80 C 74.85 84.87 74.85 88.95 74.79 93.03 C 74.16 93.01 72.90 92.98 72.26 92.96 C 72.24 88.89 72.23 84.81 72.27 80.74 Z" />
<path fill="#0f1e47" opacity="1.00" d=" M 89.24 80.76 C 92.40 80.74 95.55 80.75 98.70 80.76 C 98.74 81.25 98.80 82.23 98.84 82.72 C 97.65 82.78 96.47 82.83 95.29 82.88 C 95.31 86.26 95.31 89.64 95.28 93.01 C 94.65 93.02 93.39 93.02 92.76 93.02 C 92.77 89.64 92.76 86.27 92.77 82.89 C 91.58 82.84 90.40 82.79 89.22 82.74 C 89.22 82.24 89.24 81.25 89.24 80.76 Z" />
<path fill="#0f1e47" opacity="1.00" d=" M 77.26 80.79 C 78.40 80.79 79.54 80.79 80.69 80.80 C 82.25 83.57 83.76 86.37 85.27 89.17 C 85.25 86.38 85.23 83.58 85.23 80.79 L 87.56 80.79 C 87.56 84.90 87.65 89.01 87.43 93.11 C 86.66 93.05 85.13 92.92 84.36 92.86 C 82.72 89.74 81.05 86.64 79.48 83.49 C 79.58 86.68 79.58 89.87 79.52 93.06 C 78.95 93.03 77.81 92.97 77.24 92.94 C 77.22 88.89 77.23 84.84 77.26 80.79 Z" />
<path fill="#0f1e47" opacity="1.00" d=" M 99.98 80.78 C 102.45 80.75 104.93 80.74 107.41 80.75 C 107.46 81.25 107.57 82.26 107.62 82.76 C 105.93 82.81 104.23 82.84 102.54 82.86 C 102.55 83.52 102.57 84.84 102.58 85.50 C 103.97 85.50 105.35 85.51 106.74 85.52 C 106.74 86.02 106.74 87.02 106.74 87.52 C 105.35 87.54 103.96 87.56 102.57 87.58 C 102.56 88.40 102.56 90.05 102.56 90.87 C 104.29 90.95 106.02 91.04 107.75 91.16 C 107.64 91.63 107.41 92.55 107.30 93.01 C 104.87 93.02 102.45 93.02 100.03 93.03 C 99.96 88.94 99.97 84.86 99.98 80.78 Z" />
<path fill="#0f1e47" opacity="1.00" d=" M 112.20 81.15 C 114.50 79.99 117.10 80.65 119.47 81.15 C 119.49 81.72 119.53 82.86 119.55 83.43 C 117.15 82.90 113.76 81.53 112.22 84.31 C 110.03 87.68 112.87 92.13 116.89 91.25 C 116.92 90.48 116.99 88.94 117.02 88.16 C 116.20 88.05 114.56 87.83 113.74 87.71 C 114.30 84.87 117.53 86.31 119.55 86.04 C 119.57 88.22 119.57 90.40 119.53 92.57 C 117.15 93.08 114.58 93.72 112.23 92.73 C 107.77 90.69 107.89 83.28 112.20 81.15 Z" />
<path fill="#0f1e47" opacity="1.00" d=" M 121.76 80.72 C 124.25 80.92 127.12 80.19 129.31 81.69 C 131.29 83.36 129.90 85.95 128.51 87.48 C 129.59 89.25 130.50 91.13 131.33 93.04 C 130.59 93.01 129.12 92.96 128.39 92.94 C 127.50 90.85 126.72 88.49 124.46 87.52 C 124.35 89.36 124.29 91.20 124.24 93.04 C 123.62 93.04 122.39 93.02 121.77 93.01 C 121.72 88.92 121.74 84.82 121.76 80.72 M 124.34 82.54 C 124.34 83.47 124.32 85.33 124.32 86.26 C 125.51 85.86 127.11 85.98 127.75 84.65 C 128.07 82.72 125.52 83.11 124.34 82.54 Z" />
<path fill="#0f1e47" opacity="1.00" d=" M 132.78 80.77 C 133.41 80.77 134.67 80.77 135.30 80.77 C 135.31 84.86 135.33 88.94 135.27 93.03 C 134.65 93.02 133.40 93.01 132.77 93.01 C 132.77 88.92 132.76 84.84 132.78 80.77 Z" />
<path fill="#0f1e47" opacity="1.00" d=" M 135.79 82.37 C 138.12 79.45 142.79 80.92 146.07 81.10 C 146.66 83.33 143.82 82.68 142.55 83.06 C 142.58 86.35 142.57 89.65 142.56 92.94 C 141.92 92.97 140.65 93.02 140.01 93.05 C 139.98 89.69 139.97 86.33 139.97 82.97 C 138.57 82.80 137.17 82.60 135.79 82.37 Z" />
<path fill="#0f1e47" opacity="1.00" d=" M 147.03 81.02 C 149.90 79.59 150.24 84.23 151.40 85.92 C 152.00 84.23 152.63 82.54 153.25 80.84 C 154.00 80.82 155.49 80.78 156.24 80.76 C 154.37 84.63 151.91 88.47 152.48 92.98 C 151.88 92.99 150.68 93.03 150.09 93.05 C 151.02 88.57 147.61 85.09 147.03 81.02 Z" />
<path fill="#0f1e47" opacity="1.00" d=" M 208.25 81.79 C 208.88 81.77 210.13 81.72 210.76 81.70 C 210.87 85.81 210.84 89.92 210.79 94.03 C 210.16 94.03 208.89 94.01 208.26 94.00 C 208.24 89.93 208.23 85.86 208.25 81.79 Z" />
<path fill="#0f1e47" opacity="1.00" d=" M 165.77 81.71 C 168.51 81.90 171.65 81.23 174.05 82.91 C 176.57 85.07 176.60 89.23 174.91 91.91 C 172.75 94.70 168.87 93.87 165.81 94.07 C 165.72 89.95 165.76 85.83 165.77 81.71 M 168.36 83.57 C 168.29 86.46 168.29 89.36 168.34 92.25 C 170.81 92.10 173.85 91.07 173.47 87.98 C 173.96 84.78 170.93 83.69 168.36 83.57 Z" />
<path fill="#0f1e47" opacity="1.00" d=" M 177.99 81.56 C 178.60 81.67 179.82 81.89 180.43 82.00 C 180.78 85.96 180.50 89.96 180.55 93.94 C 179.91 93.97 178.63 94.02 177.99 94.05 C 177.97 89.89 177.98 85.72 177.99 81.56 Z" />
<path fill="#0f1e47" opacity="1.00" d=" M 185.42 93.54 C 180.80 91.11 181.72 82.69 187.02 81.69 C 189.42 81.27 193.37 81.07 193.41 84.45 C 190.87 83.96 187.12 82.43 185.58 85.49 C 183.63 88.94 186.44 93.00 190.37 92.37 C 190.42 91.55 190.52 89.90 190.57 89.08 C 189.87 89.08 188.47 89.07 187.77 89.07 C 187.78 88.54 187.79 87.50 187.79 86.97 C 189.54 86.99 191.30 87.01 193.05 87.03 C 193.03 89.26 193.00 91.50 192.90 93.73 C 190.44 94.04 187.74 94.79 185.42 93.54 Z" />
<path fill="#0f1e47" opacity="1.00" d=" M 195.51 93.98 C 195.49 89.89 195.46 85.80 195.57 81.72 C 196.42 81.75 198.11 81.81 198.96 81.84 C 200.54 84.64 202.08 87.46 203.55 90.32 C 203.49 87.43 203.48 84.55 203.51 81.67 L 205.82 81.87 C 205.81 86.01 205.92 90.16 205.64 94.30 C 204.95 94.16 203.56 93.88 202.87 93.73 C 200.64 90.95 199.41 87.52 197.69 84.43 C 197.50 84.44 197.12 84.47 196.92 84.49 C 198.69 87.24 197.51 90.90 197.76 94.03 C 197.19 94.02 196.07 93.99 195.51 93.98 Z" />
<path fill="#0f1e47" opacity="1.00" d=" M 212.29 81.75 C 215.47 81.75 218.65 81.73 221.83 81.81 L 221.63 83.81 C 220.80 83.82 219.14 83.83 218.31 83.84 C 218.30 87.22 218.31 90.61 218.29 94.00 C 217.66 94.01 216.39 94.02 215.76 94.03 C 215.75 90.62 215.75 87.22 215.76 83.81 C 214.88 83.81 213.13 83.80 212.25 83.79 L 212.29 81.75 Z" />
<path fill="#0f1e47" opacity="1.00" d=" M 221.75 81.54 C 225.25 80.91 225.70 84.57 226.82 86.92 C 227.85 84.55 228.23 80.83 231.76 81.57 C 230.01 85.56 227.32 89.38 227.96 93.98 C 227.36 93.98 226.17 93.99 225.57 93.99 C 226.20 89.39 223.47 85.55 221.75 81.54 Z" />
<path fill="#0f1e47" opacity="1.00" d=" M 243.47 86.00 C 243.39 82.25 248.01 81.99 250.63 83.09 C 250.59 83.55 250.50 84.49 250.46 84.96 C 248.94 84.77 247.42 84.72 245.90 84.82 C 246.02 87.78 249.86 87.66 251.09 89.94 C 251.56 91.59 251.16 93.56 249.64 94.52 C 247.79 95.83 245.48 94.98 243.45 94.75 C 243.35 94.16 243.14 92.97 243.04 92.38 C 244.77 92.66 249.11 94.30 248.62 91.30 C 247.02 89.44 243.24 89.05 243.47 86.00 Z" />
<path fill="#0f1e47" opacity="1.00" d=" M 256.15 82.81 C 256.93 82.78 258.48 82.72 259.25 82.69 C 260.82 86.86 262.41 91.02 263.76 95.27 C 261.56 95.54 260.47 94.13 259.76 92.32 C 258.28 92.31 256.81 92.30 255.34 92.28 C 255.12 92.95 254.69 94.28 254.47 94.95 C 253.83 94.96 252.54 94.98 251.90 94.99 C 253.23 90.90 254.71 86.86 256.15 82.81 M 255.99 90.27 C 257.12 90.25 258.24 90.23 259.37 90.21 C 258.77 88.50 258.18 86.80 257.60 85.09 C 257.07 86.82 256.53 88.55 255.99 90.27 Z" />
<path fill="#0f1e47" opacity="1.00" d=" M 264.98 82.78 C 267.47 82.74 269.95 82.74 272.44 82.80 C 272.29 85.58 269.50 84.72 267.59 84.92 C 267.56 85.89 267.54 86.85 267.51 87.82 C 269.25 88.14 271.85 87.37 272.31 89.74 C 270.72 89.90 269.13 90.05 267.55 90.17 C 267.55 91.75 267.56 93.33 267.57 94.91 C 266.92 94.95 265.63 95.02 264.98 95.06 C 264.96 90.97 264.98 86.87 264.98 82.78 Z" />
<path fill="#0f1e47" opacity="1.00" d=" M 273.77 82.78 C 276.20 82.76 278.63 82.75 281.06 82.76 L 281.15 84.85 C 279.53 84.84 277.91 84.83 276.30 84.82 C 276.30 85.71 276.31 86.60 276.32 87.50 C 277.72 87.51 279.13 87.52 280.54 87.54 L 280.45 89.55 C 279.07 89.55 277.70 89.55 276.32 89.56 C 276.30 90.69 276.28 91.82 276.27 92.96 C 277.91 92.97 279.56 92.97 281.21 92.99 C 281.21 93.49 281.21 94.50 281.21 95.01 C 278.73 95.02 276.26 95.02 273.78 95.03 C 273.73 90.95 273.75 86.86 273.77 82.78 Z" />
<path fill="#0f1e47" opacity="1.00" d=" M 281.45 82.85 C 284.77 82.71 288.10 82.75 291.43 82.77 L 291.48 84.79 C 290.63 84.80 288.92 84.84 288.06 84.85 C 288.07 88.24 288.07 91.62 288.03 95.00 C 287.40 95.01 286.13 95.02 285.50 95.03 C 285.52 91.70 285.50 88.37 285.51 85.04 C 284.00 84.60 281.45 85.41 281.45 82.85 Z" />
<path fill="#0f1e47" opacity="1.00" d=" M 291.75 82.78 C 292.49 82.79 293.99 82.82 294.74 82.83 C 295.41 84.53 296.08 86.24 296.74 87.95 C 297.88 85.61 298.16 81.76 301.74 82.62 C 299.95 86.59 297.35 90.43 297.95 95.02 C 297.37 95.01 296.19 95.01 295.60 95.01 C 296.16 90.48 293.61 86.66 291.75 82.78 Z" />
</g>
</svg>
