<?xml version="1.0" encoding="UTF-8" ?>
<!DOCTYPE svg PUBLIC "-//W3C//DTD SVG 1.1//EN" "http://www.w3.org/Graphics/SVG/1.1/DTD/svg11.dtd">
<svg width="311pt" height="104pt" viewBox="0 0 311 104" version="1.1" xmlns="http://www.w3.org/2000/svg">
<g id="#fffffeff">
</g>
<g id="#29207cff">
<path fill="#29207c" opacity="1.00" d=" M 188.11 17.31 C 189.41 17.83 190.70 18.33 192.01 18.84 C 191.56 20.68 191.02 22.52 190.06 24.17 C 183.94 35.49 177.91 46.85 171.76 58.15 C 166.62 58.09 161.33 55.91 156.30 57.26 C 153.47 60.50 151.06 64.10 148.30 67.41 C 131.19 67.27 114.08 67.28 96.96 67.36 C 94.53 67.67 92.97 65.77 92.23 63.71 C 95.71 61.27 100.24 63.76 103.59 61.56 C 112.51 47.18 120.89 32.47 130.00 18.19 C 132.17 18.13 133.14 19.85 133.52 21.78 C 127.89 30.55 123.13 39.89 117.89 48.91 C 115.95 52.94 112.56 56.47 112.50 61.18 C 117.85 63.59 123.98 62.85 129.49 61.44 C 131.67 58.77 132.81 55.46 134.12 52.32 C 132.60 51.34 131.09 50.35 129.60 49.32 C 131.56 41.17 135.49 33.06 142.84 28.51 C 144.49 28.64 146.14 28.86 147.80 28.76 C 149.88 25.27 151.65 21.59 153.91 18.20 C 154.79 18.21 156.55 18.24 157.43 18.25 C 157.42 18.96 157.39 20.40 157.38 21.11 C 155.48 24.72 154.59 28.85 152.19 32.19 C 149.72 34.41 146.06 34.01 142.98 34.28 C 139.83 38.93 137.04 43.85 135.28 49.21 C 137.17 49.81 139.07 50.34 140.97 50.91 C 139.73 54.50 138.09 57.95 137.04 61.60 C 139.15 61.90 141.27 62.14 143.38 62.47 C 147.14 59.62 147.07 53.86 151.03 51.18 C 156.70 50.37 162.47 51.54 168.19 51.15 C 171.13 45.22 174.76 39.69 178.01 33.94 C 181.63 28.55 184.10 22.45 188.11 17.31 Z" />
<path fill="#29207c" opacity="1.00" d=" M 66.81 17.94 C 74.21 17.84 81.61 18.22 89.02 17.94 C 97.15 18.63 105.31 18.48 113.46 18.79 C 113.43 19.70 113.37 21.52 113.34 22.44 C 105.16 21.93 96.79 23.05 88.73 21.85 C 87.00 20.81 84.94 20.66 83.11 21.55 C 81.82 21.91 80.53 22.28 79.25 22.67 C 79.02 25.70 82.53 26.77 84.90 27.24 C 91.60 27.37 98.31 27.56 105.02 27.48 C 106.43 27.27 107.68 27.95 108.86 28.61 C 108.44 29.35 107.60 30.81 107.18 31.54 C 101.12 31.08 95.04 31.41 88.97 31.33 C 89.05 33.05 89.55 35.02 91.42 35.59 C 95.55 36.35 99.79 36.12 103.97 35.88 C 103.82 37.13 103.67 38.38 103.51 39.63 C 98.53 39.78 92.51 41.28 88.45 37.54 C 85.80 35.21 84.29 31.76 81.15 29.94 C 77.92 28.12 76.17 24.82 73.91 22.05 C 71.60 20.60 69.00 19.62 66.81 17.94 Z" />
<path fill="#29207c" opacity="1.00" d=" M 245.86 21.14 C 247.63 19.82 249.51 18.46 251.83 18.42 C 250.30 21.69 247.20 23.60 244.04 25.04 C 241.16 26.09 240.64 29.50 238.55 31.40 C 236.79 32.50 234.71 32.92 232.95 33.96 C 230.95 36.29 229.88 39.64 226.91 40.96 C 222.01 42.79 215.73 39.36 211.64 43.48 C 212.51 49.30 213.05 55.17 213.77 61.01 C 213.90 63.04 213.58 66.53 210.89 66.55 C 205.93 66.84 199.90 67.37 196.34 63.14 C 197.24 62.48 198.14 61.83 199.05 61.18 C 201.55 61.40 204.07 61.46 206.59 61.47 C 206.75 60.85 207.07 59.60 207.23 58.97 C 207.61 45.75 204.09 32.72 204.68 19.49 C 206.10 19.30 207.52 19.12 208.95 18.95 C 209.55 19.59 210.16 20.23 210.77 20.87 C 222.46 21.35 234.16 21.07 245.86 21.14 M 210.55 25.54 C 210.38 26.86 210.40 28.20 210.36 29.53 C 218.02 31.77 226.13 30.51 233.92 29.83 C 235.46 29.17 239.03 25.90 236.25 25.00 C 229.85 24.63 223.43 24.93 217.03 24.77 C 214.87 24.91 212.52 24.47 210.55 25.54 M 211.57 33.40 C 211.56 35.07 210.73 36.99 211.96 38.44 C 215.96 39.18 220.04 39.12 224.08 38.83 C 225.80 37.42 227.76 35.99 227.81 33.54 C 222.41 33.15 216.98 33.15 211.57 33.40 Z" />
<path fill="#29207c" opacity="1.00" d=" M 164.40 29.29 C 165.76 27.97 167.68 28.47 169.33 28.69 C 169.54 33.24 166.03 36.49 163.71 39.99 C 162.62 41.65 160.48 40.36 158.98 40.16 C 159.38 36.02 160.80 31.73 164.40 29.29 Z" />
<path fill="#29207c" opacity="1.00" d=" M 186.53 53.80 C 189.60 52.49 192.97 53.63 196.16 53.74 C 195.74 55.19 195.34 56.66 194.93 58.12 C 193.43 58.44 191.62 58.24 190.47 59.46 C 188.00 62.07 185.60 64.76 183.28 67.51 C 179.22 67.64 175.14 67.80 171.08 67.54 C 169.66 67.52 168.13 65.52 169.36 64.32 C 171.53 60.88 176.07 62.30 179.44 61.80 C 181.68 59.04 183.64 55.95 186.53 53.80 Z" />
</g>
<g id="#0f1e47ff">
<path fill="#0f1e47" opacity="1.00" d=" M 83.11 21.55 C 84.94 20.66 87.00 20.81 88.73 21.85 C 87.18 22.85 84.49 22.85 83.11 21.55 Z" />
<path fill="#0f1e47" opacity="1.00" d=" M 192.41 43.22 C 191.64 41.18 192.78 37.23 195.52 38.33 C 195.76 40.56 193.98 42.00 192.41 43.22 Z" />
</g>
</svg>
